<?xml version="1.0" encoding="utf-8"?>
<!-- Generator: Adobe Illustrator 23.0.3, SVG Export Plug-In . SVG Version: 6.00 Build 0)  -->
<svg version="1.1" id="Layer_2" xmlns="http://www.w3.org/2000/svg" xmlns:xlink="http://www.w3.org/1999/xlink" x="0px" y="0px"
	 width="160px" height="22px" viewBox="0 0 160 22" style="enable-background:new 0 0 160 22;" xml:space="preserve">
<g id="XMLID_17_">
	<rect id="XMLID_356_" x="127.7" y="2.2" width="5.3" height="17.7"/>
	<path id="XMLID_309_" d="M18,2.2H0.5v17.7H6V15h12c3.4,0,6.1-2.7,6.1-6V8.2C24.2,4.9,21.4,2.2,18,2.2z M16.6,11H6V6.2h10.6
		c1.3,0,2.4,1.1,2.4,2.4S17.9,11,16.6,11z"/>
	<path id="XMLID_306_" d="M121.7,14c1.7-1.1,2.8-2.9,2.8-5.1V8.2c0-3.3-2.7-6-6.1-6h-17.5v17.7h5.5V15h9.6l2.8,4.9h6.2L121.7,14z
		 M106.4,11V6.2H117c1.3,0,2.4,1.1,2.4,2.4c0,1.3-1.1,2.4-2.4,2.4H106.4z"/>
	<path id="XMLID_305_" d="M154.1,8.8h-11.8c-0.7,0-1.3-0.6-1.3-1.3c0-0.7,0.6-1.3,1.3-1.3h15.3v-4h-16.3c-3,0-5.4,2.4-5.4,5.4
		s2.4,5.4,5.4,5.4h11.8c0.7,0,1.3,0.6,1.3,1.3c0,0.7-0.6,1.3-1.3,1.3h-16.6v4.2h17.6c3,0,5.4-2.4,5.4-5.4
		C159.5,11.4,157.1,8.8,154.1,8.8z"/>
	<g id="XMLID_300_">
		<path id="XMLID_304_" d="M45.7,5.2l-1.5,4.2l7.7,1.1v-3c0-2.9-2.4-5.3-5.3-5.3h-6.8l1.4,4.7L45.7,5.2z"/>
		<path id="XMLID_303_" d="M44.2,12.6l1.5,4.2l-4.5-1.7l-1.4,4.7h6.8c2.9,0,5.3-2.4,5.3-5.3v-3L44.2,12.6z"/>
		<path id="XMLID_302_" d="M26.8,7.5l0,3l7.7-1.1L33,5.2l4.5,1.7l1.4-4.7h-6.8C29.1,2.2,26.8,4.6,26.8,7.5z"/>
		<path id="XMLID_301_" d="M33,16.8l1.5-4.2l-7.7-1.1l0,3c0,2.9,2.4,5.3,5.3,5.3h6.8l-1.4-4.7L33,16.8z"/>
	</g>
	<path id="XMLID_299_" d="M61.2,15.8c-0.5,0-0.9-0.4-0.9-1V2.2h-5.3v13.9c0,2.1,1.7,3.7,3.7,3.7h13.3v-4.1H61.2z"/>
	<path id="XMLID_18_" d="M92,2.2H80.6c-3.4,0-6.1,2.7-6.1,6v11.6h5.3V15h13v4.9h5.3V8.2C98.1,4.9,95.4,2.2,92,2.2z M92.8,11h-13V8.1
		c0-1,0.8-1.9,1.9-1.9h4.6l0,0v0h4.6c1,0,1.9,0.9,1.9,1.9V11z"/>
</g>
</svg>
